<?xml version="1.0" encoding="UTF-8" standalone="no"?>
<svg
   xmlns:dc="http://purl.org/dc/elements/1.1/"
   xmlns:cc="http://creativecommons.org/ns#"
   xmlns:rdf="http://www.w3.org/1999/02/22-rdf-syntax-ns#"
   xmlns:svg="http://www.w3.org/2000/svg"
   xmlns="http://www.w3.org/2000/svg"
   xml:space="preserve"
   enable-background="new 0 0 65 65"
   viewBox="0 0 65 65"
   y="0px"
   x="0px"
   id="Layer_1"
   version="1.1"><metadata
     id="metadata31"><rdf:RDF><cc:Work
         rdf:about=""><dc:format>image/svg+xml</dc:format><dc:type
           rdf:resource="http://purl.org/dc/dcmitype/StillImage" /><dc:title></dc:title></cc:Work></rdf:RDF></metadata><defs
     id="defs29" /><g
     id="g3"><polygon
       id="polygon7"
       points="29.8,37.2 25.6,58.3 35.2,37.2  "
       fill="#FFFFFF" /><polygon
       id="polygon9"
       points="58.8,25.1 39.7,21.1 41.8,6.7 34.3,21.1 9.6,25.1  "
       fill="#FFFFFF" /><polygon
       id="polygon11"
       points="9.6,27.5 12.8,27.5 11.6,32.5 15.2,27.5 18.4,27.5 14.8,34.9 12.9,34.9 16,28.7 11.3,34.9    9.4,34.9 10.7,28.7 7.8,34.9 6,34.9  "
       fill="#FFFFFF" /><polygon
       id="polygon13"
       points="19.8,27.6 25.3,27.6 24.6,29 21.1,29 20.4,30.5 23.7,30.5 23,31.9 19.7,31.9 19,33.5 22.6,33.5    21.9,34.9 16.3,34.9  "
       fill="#FFFFFF" /><g
       id="g15"><path
         id="path17"
         d="M25.8,33.5h1c1.4,0,2.8-0.6,3.6-2.3c1.3-2.6-0.4-2.3-1.5-2.3H28L25.8,33.5z M26.6,27.5h3.1    c0.9,0,2,0.1,2.5,0.6c0.7,0.7,0.4,2-0.1,3c-0.8,1.6-1.9,2.8-3.6,3.4c-0.9,0.3-1.8,0.3-2.3,0.3h-3.1L26.6,27.5z"
         fill="#FFFFFF" /></g><polygon
       id="polygon19"
       points="35.1,27.5 37.1,27.5 34.3,33.5 37.2,33.5 36.5,34.9 31.5,34.9  "
       fill="#FFFFFF" /><polygon
       id="polygon21"
       points="41.2,27.5 43.3,27.5 39.8,34.9 37.7,34.9  "
       fill="#FFFFFF" /><polygon
       id="polygon23"
       points="44.7,27.5 47.5,27.5 47.4,33 50,27.5 51.7,27.5 48.2,34.9 45.5,34.9 45.7,29.2 42.9,34.9    41.2,34.9  "
       fill="#FFFFFF" /><polygon
       id="polygon25"
       points="53.2,27.6 58.7,27.6 58,29 54.5,29 53.8,30.5 57.1,30.5 56.4,31.9 53.1,31.9 52.4,33.5 55.9,33.5    55.3,34.9 49.7,34.9  "
       fill="#FFFFFF" /></g></svg>